<?xml version="1.0" encoding="UTF-8" standalone="no"?>
<!-- Created with Inkscape (http://www.inkscape.org/) -->

<svg
   xmlns:dc="http://purl.org/dc/elements/1.1/"
   xmlns:cc="http://creativecommons.org/ns#"
   xmlns:rdf="http://www.w3.org/1999/02/22-rdf-syntax-ns#"
   xmlns:svg="http://www.w3.org/2000/svg"
   xmlns="http://www.w3.org/2000/svg"
   xmlns:sodipodi="http://sodipodi.sourceforge.net/DTD/sodipodi-0.dtd"
   xmlns:inkscape="http://www.inkscape.org/namespaces/inkscape"
   width="200"
   height="50"
   viewBox="0 0 52.916665 13.229167"
   version="1.1"
   id="svg865"
   inkscape:version="0.92.3 (2405546, 2018-03-11)"
   sodipodi:docname="logo.svg"
   inkscape:export-filename="/home/f3011432/Imagens/scriba1.png"
   inkscape:export-xdpi="25"
   inkscape:export-ydpi="25">
  <defs
     id="defs859" />
  <sodipodi:namedview
     id="base"
     pagecolor="#ffffff"
     bordercolor="#666666"
     borderopacity="1.0"
     inkscape:pageopacity="0.0"
     inkscape:pageshadow="2"
     inkscape:zoom="2.8000001"
     inkscape:cx="54.72744"
     inkscape:cy="31.460486"
     inkscape:document-units="px"
     inkscape:current-layer="layer1"
     showgrid="false"
     units="px"
     inkscape:window-width="1920"
     inkscape:window-height="1025"
     inkscape:window-x="1080"
     inkscape:window-y="171"
     inkscape:window-maximized="1"
     showguides="true"
     inkscape:guide-bbox="true">
    <sodipodi:guide
       position="0,0"
       orientation="1,0"
       id="guide919"
       inkscape:locked="false"
       inkscape:label=""
       inkscape:color="rgb(0,0,255)" />
    <sodipodi:guide
       position="0,0"
       orientation="0,1"
       id="guide921"
       inkscape:locked="false"
       inkscape:label=""
       inkscape:color="rgb(0,0,255)" />
  </sodipodi:namedview>
  <metadata
     id="metadata862">
    <rdf:RDF>
      <cc:Work
         rdf:about="">
        <dc:format>image/svg+xml</dc:format>
        <dc:type
           rdf:resource="http://purl.org/dc/dcmitype/StillImage" />
        <dc:title />
      </cc:Work>
    </rdf:RDF>
  </metadata>
  <g
     inkscape:label="Camada 1"
     inkscape:groupmode="layer"
     id="layer1"
     transform="translate(0,-283.77082)">
    <path
       d="m 13.720901,295.7928 q -1.497354,0 -2.325781,-0.46419 -0.826231,-0.48021 -1.124236,-1.7928 -0.2820745,-1.31258 0.05793,-3.79368 0.322457,-2.35305 0.978016,-3.64962 0.657753,-1.31259 1.649652,-1.80881 0.99409,-0.51222 2.459594,-0.51222 0.955757,0 1.889576,0.16006 0.951942,0.14407 1.608387,0.35216 l -0.20839,1.52067 q -0.464719,-0.096 -1.345794,-0.17606 -0.865136,-0.0801 -1.789036,-0.0801 -1.051331,0 -1.670856,0.33615 -0.601398,0.32013 -0.979108,1.21654 -0.37771,0.89639 -0.621197,2.67319 -0.243488,1.77678 -0.12739,2.67318 0.116098,0.8964 0.627558,1.23255 0.511464,0.33615 1.594652,0.33615 1.815937,0 3.209989,-0.17608 l -0.208391,1.52067 q -1.508794,0.43219 -3.675176,0.43219 z"
       style="font-style:normal;font-variant:normal;font-weight:600;font-stretch:normal;font-size:180px;line-height:125%;font-family:Exo;-inkscape-font-specification:'Exo, Semi-Bold';font-variant-ligatures:normal;font-variant-caps:normal;font-variant-numeric:normal;font-feature-settings:normal;text-align:start;letter-spacing:0px;word-spacing:0px;writing-mode:lr-tb;text-anchor:start;fill:#00396a;fill-opacity:0.97536945;stroke:none;stroke-width:0.40420845px;stroke-linecap:butt;stroke-linejoin:miter;stroke-opacity:1"
       id="path1183"
       inkscape:connector-curvature="0"
       inkscape:export-xdpi="96"
       inkscape:export-ydpi="96" />
    <path
       sodipodi:nodetypes="ccsczccccccccccccc"
       d="m 20.491367,285.6744 0.245417,-1.79088 h 4.778784 c 0.998235,0 1.752822,0.26679 2.263781,0.80036 0.512418,0.52289 0.67023,1.15877 0.483453,2.86528 -0.186775,1.70649 -0.772579,2.51306 -2.570429,2.85014 l 1.724699,5.29746 H 25.425913 L 23.754176,290.3993 H 21.78247 l -0.705251,5.29746 h -1.9593 l 0.936917,-6.81921 4.522219,8.3e-4 c 1.196268,-0.0952 1.616097,-0.65776 1.710516,-1.32918 0.09944,-0.72565 0.02408,-1.22187 -0.22608,-1.48866 -0.23955,-0.26677 -0.614189,-0.40017 -1.123925,-0.40017 z"
       style="font-style:normal;font-variant:normal;font-weight:600;font-stretch:normal;font-size:180px;line-height:125%;font-family:Exo;-inkscape-font-specification:'Exo, Semi-Bold';font-variant-ligatures:normal;font-variant-caps:normal;font-variant-numeric:normal;font-feature-settings:normal;text-align:start;letter-spacing:0px;word-spacing:0px;writing-mode:lr-tb;text-anchor:start;fill:#00396a;fill-opacity:0.97536945;stroke:none;stroke-width:0.40420845px;stroke-linecap:butt;stroke-linejoin:miter;stroke-opacity:1"
       id="path1185"
       inkscape:connector-curvature="0"
       inkscape:export-xdpi="96"
       inkscape:export-ydpi="96" />
    <path
       sodipodi:nodetypes="ccccc"
       d="m 30.731991,283.88352 h 1.959302 l -1.578961,11.83698 -1.422673,-3.89735 z"
       style="font-style:normal;font-variant:normal;font-weight:600;font-stretch:normal;font-size:180px;line-height:125%;font-family:Exo;-inkscape-font-specification:'Exo, Semi-Bold';font-variant-ligatures:normal;font-variant-caps:normal;font-variant-numeric:normal;font-feature-settings:normal;text-align:start;letter-spacing:0px;word-spacing:0px;writing-mode:lr-tb;text-anchor:start;fill:#ffa500;fill-opacity:1;stroke:none;stroke-width:0.412976px;stroke-linecap:butt;stroke-linejoin:miter;stroke-opacity:1"
       id="path1187"
       inkscape:connector-curvature="0"
       inkscape:export-xdpi="96"
       inkscape:export-ydpi="96" />
    <path
       sodipodi:nodetypes="ccsscccssscccssssccscscsccs"
       d="m 34.790056,285.66167 0.243673,-1.77815 h 4.492056 c 2.166383,0 3.109183,1.02445 2.828403,3.07338 -0.09505,0.69364 -0.32801,1.26989 -0.698861,1.72876 -0.358763,0.4482 -0.796482,0.73633 -1.313148,0.86438 0.543826,0.13872 0.979296,0.4482 1.306404,0.92842 0.339206,0.46953 0.451763,1.12049 0.337701,1.95287 -0.160868,1.17384 -0.562392,2.01155 -1.204572,2.51311 -0.64219,0.50156 -1.536733,0.75232 -2.683641,0.75232 h -4.683209 l 0.934465,-6.81902 h 1.959301 2.564614 c 0.403542,0 0.747907,-0.14939 1.033103,-0.44819 0.285196,-0.2988 0.462162,-0.69898 0.530897,-1.20054 0.14331,-1.0458 -0.246975,-1.56869 -1.170874,-1.56869 h -2.516827 z m 3.487786,8.25832 c 0.530976,0 0.953526,-0.13874 1.267652,-0.4162 0.315594,-0.28812 0.517993,-0.75766 0.607197,-1.40862 0.07165,-0.52289 -0.02602,-0.93375 -0.293046,-1.23254 -0.256399,-0.2988 -0.623533,-0.4482 -1.101411,-0.4482 h -2.66019 l -0.480391,3.50556 z"
       style="font-style:normal;font-variant:normal;font-weight:600;font-stretch:normal;font-size:180px;line-height:125%;font-family:Exo;-inkscape-font-specification:'Exo, Semi-Bold';font-variant-ligatures:normal;font-variant-caps:normal;font-variant-numeric:normal;font-feature-settings:normal;text-align:start;letter-spacing:0px;word-spacing:0px;writing-mode:lr-tb;text-anchor:start;fill:#00396a;fill-opacity:0.97536945;stroke:none;stroke-width:0.40420845px;stroke-linecap:butt;stroke-linejoin:miter;stroke-opacity:1"
       id="path1189"
       inkscape:connector-curvature="0"
       inkscape:export-xdpi="96"
       inkscape:export-ydpi="96" />
    <path
       sodipodi:nodetypes="zcczccccssccccscccsscccssccccz"
       inkscape:connector-curvature="0"
       d="m 4.3282826,293.96924 c -0.2693642,0.0168 -3.92580386,0.0291 -3.92580386,0.0291 l -0.21964237,1.63815 c 0,0 1.56551603,0.061 3.74818313,0.0593 2.182666,-9.9e-4 2.6711404,-0.37509 3.0355603,-0.59124 0.7439937,-0.46954 1.2000999,-1.31781 1.3682736,-2.54503 l 0.1031879,-0.75237 c 0.1213784,-0.88571 -0.041613,-1.59539 -0.4888442,-2.12894 -0.4351615,-0.54424 -1.1465335,-0.81637 -2.1341459,-0.81637 H 4.5884653 c -0.530976,0 -0.9145106,-0.1067 -1.1507499,-0.32013 -0.2256207,-0.21344 -0.305629,-0.56022 -0.2398204,-1.04043 l 0.054832,-0.40017 c 0.080429,-0.58692 0.2999513,-0.9872 0.658405,-1.20063 0.3705335,-0.22411 0.8903236,-0.33604 1.5593533,-0.33604 0.7433632,0 1.8252667,0.048 3.2457466,0.14404 l 0.212726,-1.5527 c -0.4541018,-0.0961 -1.0051616,-0.18143 -1.6533357,-0.25613 -0.6375515,-0.0747 -1.2324399,-0.11211 -1.7846553,-0.11211 -1.2106243,0 -2.1597961,0.26155 -2.8473851,0.78444 -0.687589,0.5229 -1.1074234,1.33927 -1.2595122,2.4491 l -0.083356,0.60819 c -0.1506266,1.09916 0.016607,1.89421 0.5015495,2.3851 0.4955642,0.49089 1.3007872,0.73633 2.4158366,0.73633 h 1.099157 c 0.4566364,0 0.7864382,0.11207 0.9893573,0.33617 0.2029191,0.2241 0.2758536,0.54422 0.2188205,0.9604 l -0.076741,0.56023 c -0.073123,0.53356 -0.2888827,0.82626 -0.6883507,1.02901 -0.4544866,0.35498 -1.1626986,0.31595 -1.4320637,0.33285 z"
       style="fill:#00396a;fill-opacity:0.97536945;stroke:none;stroke-width:0.05521705;stroke-linejoin:round;stroke-miterlimit:4;stroke-dasharray:none;stroke-opacity:1"
       id="path1193"
       inkscape:export-xdpi="96"
       inkscape:export-ydpi="96" />
    <path
       sodipodi:nodetypes="ccccccccccccccc"
       inkscape:connector-curvature="0"
       id="path1195"
       d="M 52.916666,296.99901 C 33.746417,297.00197 16.86755,297 0,297 l 0.10529159,-0.78529 c 17.12629441,-0.006 33.71369741,10e-5 50.84008241,0 -0.194873,-1.05089 -0.324019,-1.74726 -0.5189,-2.79814 l -4.346665,-0.025 0.718222,-1.70518 3.299123,-0.0456 -1.104155,-6.0155 -4.425402,10.07147 h -2.023018 l 5.441893,-11.81325 2.498696,9.9e-4 c 0.857714,4.62548 1.686194,9.09506 2.431498,13.11408 z"
       style="fill:#00396a;fill-opacity:0.97536945;stroke:none;stroke-width:0.02153432;stroke-linejoin:round;stroke-miterlimit:4;stroke-dasharray:none;stroke-opacity:1"
       inkscape:export-xdpi="96"
       inkscape:export-ydpi="96" />
  </g>
</svg>
