<?xml version="1.0" encoding="UTF-8" standalone="no"?>
<!-- Created with Inkscape (http://www.inkscape.org/) -->

<svg
   xmlns:dc="http://purl.org/dc/elements/1.1/"
   xmlns:cc="http://creativecommons.org/ns#"
   xmlns:rdf="http://www.w3.org/1999/02/22-rdf-syntax-ns#"
   xmlns:svg="http://www.w3.org/2000/svg"
   xmlns="http://www.w3.org/2000/svg"
   xmlns:sodipodi="http://sodipodi.sourceforge.net/DTD/sodipodi-0.dtd"
   xmlns:inkscape="http://www.inkscape.org/namespaces/inkscape"
   width="36pt"
   height="36pt"
   viewBox="0 0 12.7 12.7"
   version="1.1"
   id="svg865"
   inkscape:version="0.92.3 (2405546, 2018-03-11)"
   sodipodi:docname="favicon_48x48.svg"
   inkscape:export-filename="/home/f3011432/Imagens/scriba1.png"
   inkscape:export-xdpi="25"
   inkscape:export-ydpi="25">
  <defs
     id="defs859" />
  <sodipodi:namedview
     id="base"
     pagecolor="#ffffff"
     bordercolor="#666666"
     borderopacity="1.0"
     inkscape:pageopacity="0.0"
     inkscape:pageshadow="2"
     inkscape:zoom="0.70710679"
     inkscape:cx="89.423482"
     inkscape:cy="-55.069604"
     inkscape:document-units="px"
     inkscape:current-layer="layer1"
     showgrid="false"
     units="pt"
     inkscape:window-width="1299"
     inkscape:window-height="713"
     inkscape:window-x="67"
     inkscape:window-y="27"
     inkscape:window-maximized="1"
     showguides="true"
     inkscape:guide-bbox="true" />
  <metadata
     id="metadata862">
    <rdf:RDF>
      <cc:Work
         rdf:about="">
        <dc:format>image/svg+xml</dc:format>
        <dc:type
           rdf:resource="http://purl.org/dc/dcmitype/StillImage" />
        <dc:title />
      </cc:Work>
    </rdf:RDF>
  </metadata>
  <g
     inkscape:label="Camada 1"
     inkscape:groupmode="layer"
     id="layer1"
     transform="translate(0,-284.29997)">
    <g
       id="g853"
       transform="matrix(1.27,0,0,1.27,34.282665,-75.437956)">
      <rect
         y="283.25821"
         x="-26.994225"
         height="10"
         width="10"
         id="rect847"
         style="fill:#00396a;fill-opacity:1;stroke-width:0.13014953" />
      <path
         sodipodi:nodetypes="zcczccccssccccscccsscccssccccz"
         inkscape:connector-curvature="0"
         d="m -23.680758,291.21785 c -0.177847,0.0122 -2.582838,0.0211 -2.582838,0.0211 l -0.213942,1.18641 c 0,0 1.026895,0.0442 2.462289,0.0429 1.43536,-7.1e-4 1.772454,-0.27165 2.021267,-0.4282 0.509172,-0.34005 0.845098,-0.95441 1.007758,-1.84321 l 0.09978,-0.5449 c 0.117398,-0.64146 0.04033,-1.15544 -0.231136,-1.54186 -0.263069,-0.39416 -0.71932,-0.59125 -1.368773,-0.59125 h -0.806602 c -0.349169,0 -0.596857,-0.0772 -0.74315,-0.23184 -0.139312,-0.15458 -0.177211,-0.40574 -0.113561,-0.75352 l 0.05303,-0.28982 c 0.07779,-0.42507 0.239134,-0.71497 0.483908,-0.86955 0.253173,-0.1623 0.599734,-0.24337 1.039688,-0.24337 0.488835,0 1.198259,0.0347 2.128289,0.10431 l 0.205768,-1.12452 c -0.294536,-0.0697 -0.653297,-0.1314 -1.076366,-0.1855 -0.416082,-0.0541 -0.805694,-0.0812 -1.168831,-0.0812 -0.796105,0 -1.431376,0.18943 -1.90572,0.56812 -0.474344,0.3787 -0.785065,0.96995 -0.932167,1.77373 l -0.08062,0.44047 c -0.145687,0.79606 -0.06945,1.37188 0.228623,1.72739 0.305054,0.35552 0.824155,0.53328 1.55741,0.53328 h 0.722804 c 0.300284,0 0.512408,0.0811 0.636339,0.24347 0.12393,0.16231 0.15831,0.39414 0.103145,0.69556 l -0.07423,0.40574 c -0.07072,0.38642 -0.225027,0.59841 -0.496319,0.74525 -0.313931,0.25709 -0.777995,0.22883 -0.955847,0.24107 z"
         style="fill:#ffffff;fill-opacity:1;stroke:none;stroke-width:0.03810614;stroke-linejoin:round;stroke-miterlimit:4;stroke-dasharray:none;stroke-opacity:1"
         id="path849"
         inkscape:export-xdpi="96"
         inkscape:export-ydpi="96" />
      <path
         sodipodi:nodetypes="ccccc"
         d="m -19.299277,283.85156 h 1.382057 l -0.836412,8.69382 -1.09485,-2.86246 z"
         style="font-style:normal;font-variant:normal;font-weight:600;font-stretch:normal;font-size:180px;line-height:125%;font-family:Exo;-inkscape-font-specification:'Exo, Semi-Bold';font-variant-ligatures:normal;font-variant-caps:normal;font-variant-numeric:normal;font-feature-settings:normal;text-align:start;letter-spacing:0px;word-spacing:0px;writing-mode:lr-tb;text-anchor:start;fill:#ffa500;fill-opacity:1;stroke:none;stroke-width:0.29724997px;stroke-linecap:butt;stroke-linejoin:miter;stroke-opacity:1"
         id="path851"
         inkscape:connector-curvature="0"
         inkscape:export-xdpi="96"
         inkscape:export-ydpi="96" />
    </g>
  </g>
</svg>
